<?xml version="1.0" encoding="UTF-8"?>
<svg width="34px" height="34px" viewBox="0 0 34 34" version="1.1" xmlns="http://www.w3.org/2000/svg" xmlns:xlink="http://www.w3.org/1999/xlink">
    <title>图形logo@1x</title>
    <defs>
        <linearGradient x1="50%" y1="0%" x2="50%" y2="100%" id="linearGradient-1">
            <stop stop-color="#1E1E1E" offset="0%"></stop>
            <stop stop-color="#000000" offset="100%"></stop>
        </linearGradient>
        <path d="M10.0025615,0 L9.99552127,0.00462070951 L0.0192432167,5.9897142 L0,5.9787201 L0,17.8187305 L5.15796432,20.7965388 L5.15796432,9.00640017 L10.1796616,11.9791097 L10.1837293,11.9765604 L13.3200607,15.4763495 L10.1416446,23.8 L14.4873261,21.2281768 L15.6594414,18.1275214 L17.0814056,19.7388743 L20.4,17.7433652 L17.3397027,13.8218168 L20.3414881,5.99082955 L10.0025615,0 Z M14.341824,9.69879585 L9,6.64021231 L10.9271314,5.49230769 L16.2,8.5114632 L15.3131246,10.9846154 L14.341824,9.69879585 Z" id="path-2"></path>
        <filter x="-67.3%" y="-67.3%" width="234.7%" height="234.7%" filterUnits="objectBoundingBox" id="filter-4">
            <feGaussianBlur stdDeviation="5.984" in="SourceGraphic"></feGaussianBlur>
        </filter>
        <filter x="-67.3%" y="-67.3%" width="234.7%" height="234.7%" filterUnits="objectBoundingBox" id="filter-5">
            <feGaussianBlur stdDeviation="5.984" in="SourceGraphic"></feGaussianBlur>
        </filter>
        <filter x="-67.3%" y="-67.3%" width="234.7%" height="234.7%" filterUnits="objectBoundingBox" id="filter-6">
            <feGaussianBlur stdDeviation="5.984" in="SourceGraphic"></feGaussianBlur>
        </filter>
        <filter x="-49.0%" y="-49.0%" width="198.0%" height="198.0%" filterUnits="objectBoundingBox" id="filter-7">
            <feGaussianBlur stdDeviation="4.352" in="SourceGraphic"></feGaussianBlur>
        </filter>
        <linearGradient x1="35.6767112%" y1="0%" x2="50%" y2="100%" id="linearGradient-8">
            <stop stop-color="#000000" stop-opacity="0.322115385" offset="0%"></stop>
            <stop stop-color="#000000" stop-opacity="0.290756119" offset="100%"></stop>
        </linearGradient>
        <linearGradient x1="56.0584024%" y1="1.23181218%" x2="50%" y2="100%" id="linearGradient-9">
            <stop stop-color="#000000" stop-opacity="0.201841128" offset="0%"></stop>
            <stop stop-color="#000000" stop-opacity="0.0700393357" offset="100%"></stop>
        </linearGradient>
    </defs>
    <g id="Page-1" stroke="none" stroke-width="1" fill="none" fill-rule="evenodd">
        <g id="图形logo">
            <g id="4.2-2">
                <rect id="Rectangle" fill="url(#linearGradient-1)" x="0" y="0" width="34" height="34" rx="7.4375"></rect>
                <g id="编组-3">
                    <g id="img/boot/冷启动静态">
                        <circle id="椭圆形" cx="17" cy="17" r="17"></circle>
                        <g id="编组" transform="translate(6.800000, 5.100000)">
                            <mask id="mask-3" fill="white">
                                <use xlink:href="#path-2"></use>
                            </mask>
                            <use id="Fill-1" fill="#FFFFFF" xlink:href="#path-2"></use>
                            <g id="编组-2" mask="url(#mask-3)">
                                <g transform="translate(-16.320000, -14.960000)">
                                    <circle id="椭圆形" fill="#A3FF54" opacity="0.195986793" filter="url(#filter-4)" cx="39.848" cy="33.728" r="13.328"></circle>
                                    <circle id="椭圆形备份" fill="#27A1FF" opacity="0.65578497" filter="url(#filter-5)" cx="20.128" cy="21.488" r="13.328"></circle>
                                    <circle id="椭圆形备份" fill="#FF1BF9" opacity="0.183244978" filter="url(#filter-6)" cx="36.448" cy="13.328" r="13.328"></circle>
                                    <circle id="椭圆形备份" fill="#03FFA6" opacity="0.245512463" filter="url(#filter-7)" cx="13.328" cy="35.088" r="13.328"></circle>
                                </g>
                            </g>
                            <polygon id="路径" fill="url(#linearGradient-8)" style="mix-blend-mode: soft-light;" mask="url(#mask-3)" points="10.2 11.9 20.7217833 5.77020374 20.4 22.102999 10.2 25.4288217"></polygon>
                            <polygon id="路径-2" fill="url(#linearGradient-9)" style="mix-blend-mode: overlay;" mask="url(#mask-3)" points="6.03961325e-16 5.9787201 5.15796432 9.00640017 5.15796432 20.7965388 6.03961325e-16 17.8187305"></polygon>
                        </g>
                    </g>
                </g>
            </g>
        </g>
    </g>
</svg>